# xmcd
#
# Track frame offsets:
#  150
#  10359
#  20873
#  31623
#  41401
#  51493
#  59735
#  72292
#
# Disc length: 1083 seconds
#
# Revision: 2
# Processed by: cddbd v1.5.1PL2 Copyright (c) Steve Scherf et al.
# Submitted via: AltoMP3_Maker 3.0
#
DISCID=6e043908
DTITLE=Johnny Cash - The Collection Disc 3
DYEAR=1900
DGENRE=
TTITLE0=The Ways of a Woman in Love
TTITLE1=Cold, Cold Heart
TTITLE2=I just Thought You'd Like to Know
TTITLE3=Story of a Broken Heart
TTITLE4=Goodbye Little Darlin'
TTITLE5=The Wreck of the Old '97
TTITLE6=Next in Line
TTITLE7=Two Timin' Woman
EXTD=
EXTT0=
EXTT1=
EXTT2=
EXTT3=
EXTT4=
EXTT5=
EXTT6=
EXTT7=
PLAYORDER=
